# xmcd
#
# Track frame offsets:
# 150
# 14302
# 27829
# 41802
# 58353
# 76346
# 92670
# 106586
# 124862
# 142667
# 159504
# 173960
# 190847
# 213261
#
# Disc length: 3080 seconds
#
#
# Revision: 0
# Processed by: cddbd v1.5.2PL0 Copyright (c) Steve Scherf et al.
# Submitted via: FreeRIP 2.51 
#
DISCID=b10c060e
DTITLE=Joe Nichols - Real Things
DYEAR=1900
DGENRE=Country
TTITLE0=Real Things
TTITLE1=Another Side Of You
TTITLE2=Who Are You When I'm Not Looking
TTITLE3=Comin' Back In A Cadillac
TTITLE4=My Whiskey Years
TTITLE5=It Ain't No Crime
TTITLE6=All Good Things
TTITLE7=Let's Get Drunk And Fight
TTITLE8=Ain't Nobody Gonna Take That From Me
TTITLE9=She's All Lady
TTITLE10=The Difference Is Night And Day
TTITLE11=All I Need Is A Heart
TTITLE12=If I Could Only Fly
TTITLE13=When I'm Hurtin'
EXTD=
EXTT0=
EXTT1=
EXTT2=
EXTT3=
EXTT4=
EXTT5=
EXTT6=
EXTT7=
EXTT8=
EXTT9=
EXTT10=
EXTT11=
EXTT12=
EXTT13=
PLAYORDER=
